<svg id="Layer_1" data-name="Layer 1" xmlns="http://www.w3.org/2000/svg" viewBox="0 0 2185.99 1276.71"><defs><style>.cls-1{fill:#17112a;}.cls-2{fill:#241b5a;}</style></defs><rect class="cls-1" width="2185.99" height="1276.71"/><path class="cls-2" d="M187.85,372.38c0-22.16-5.17-41.69-13-53.2s-13-31-13-53.2,5.17-41.68,13-53.19,13-31,13-53.2-5.17-41.68-13-53.2-13-31-13-53.19S167,11.51,174.83,0H73.55c-7.85,11.51-13,31-13,53.2s5.17,41.68,13,53.19,13,31,13,53.2-5.16,41.68-13,53.2-13,31-13,53.19,5.17,41.68,13,53.2,13,31,13,53.2-5.16,41.68-13,53.19-13,31-13,53.2,5.17,41.68,13,53.19,13,31,13,53.2-5.16,41.68-13,53.2-13,31-13,53.19,5.17,41.69,13,53.2,13,31,13,53.2-5.16,41.68-13,53.19-13,31.05-13,53.2,5.17,41.68,13,53.2,13,31,13,53.19-5.16,41.68-13,53.2-13,31-13,53.2,5.17,41.68,13,53.19,13,31,13,53.2-5.16,41.68-13,53.19H174.83c7.85-11.51,13-31,13-53.19s-5.17-41.68-13-53.2-13-31-13-53.19,5.17-41.69,13-53.2,13-31,13-53.2-5.17-41.68-13-53.19-13-31-13-53.2,5.17-41.68,13-53.2,13-31,13-53.19-5.17-41.69-13-53.2-13-31-13-53.2,5.17-41.68,13-53.19,13-31,13-53.2-5.17-41.68-13-53.2-13-31-13-53.19,5.17-41.68,13-53.2S187.85,394.53,187.85,372.38Z"/><path class="cls-2" d="M407.85,372.38c0-22.16-5.16-41.69-13-53.2s-13-31-13-53.2,5.16-41.68,13-53.19,13-31,13-53.2-5.16-41.68-13-53.2-13-31-13-53.19S387,11.51,394.83,0H293.55c-7.85,11.51-13,31-13,53.2s5.17,41.68,13,53.19,13,31,13,53.2-5.17,41.68-13,53.2-13,31-13,53.19,5.17,41.68,13,53.2,13,31,13,53.2-5.17,41.68-13,53.19-13,31-13,53.2,5.17,41.68,13,53.19,13,31,13,53.2-5.17,41.68-13,53.2-13,31-13,53.19,5.17,41.69,13,53.2,13,31,13,53.2-5.17,41.68-13,53.19-13,31.05-13,53.2,5.17,41.68,13,53.2,13,31,13,53.19-5.17,41.68-13,53.2-13,31-13,53.2,5.17,41.68,13,53.19,13,31,13,53.2-5.17,41.68-13,53.19H394.83c7.86-11.51,13-31,13-53.19s-5.16-41.68-13-53.2-13-31-13-53.19,5.16-41.69,13-53.2,13-31,13-53.2-5.16-41.68-13-53.19-13-31-13-53.2,5.16-41.68,13-53.2,13-31,13-53.19-5.16-41.69-13-53.2-13-31-13-53.2,5.16-41.68,13-53.19,13-31,13-53.2-5.16-41.68-13-53.2-13-31-13-53.19,5.16-41.68,13-53.2S407.85,394.53,407.85,372.38Z"/><path class="cls-2" d="M629.67,372.38c0-22.16-5.16-41.69-13-53.2s-13-31-13-53.2,5.16-41.68,13-53.19,13-31,13-53.2-5.16-41.68-13-53.2-13-31-13-53.19,5.16-41.69,13-53.2H515.37c-7.85,11.51-13,31-13,53.2s5.16,41.68,13,53.19,13,31,13,53.2-5.16,41.68-13,53.2-13,31-13,53.19,5.16,41.68,13,53.2,13,31,13,53.2-5.16,41.68-13,53.19-13,31-13,53.2,5.16,41.68,13,53.19,13,31,13,53.2-5.16,41.68-13,53.2-13,31-13,53.19,5.16,41.69,13,53.2,13,31,13,53.2-5.16,41.68-13,53.19-13,31.05-13,53.2,5.16,41.68,13,53.2,13,31,13,53.19-5.16,41.68-13,53.2-13,31-13,53.2,5.16,41.68,13,53.19,13,31,13,53.2-5.16,41.68-13,53.19H616.66c7.85-11.51,13-31,13-53.19s-5.16-41.68-13-53.2-13-31-13-53.19,5.16-41.69,13-53.2,13-31,13-53.2-5.16-41.68-13-53.19-13-31-13-53.2,5.16-41.68,13-53.2,13-31,13-53.19-5.16-41.69-13-53.2-13-31-13-53.2,5.16-41.68,13-53.19,13-31,13-53.2-5.16-41.68-13-53.2-13-31-13-53.19,5.16-41.68,13-53.2S629.67,394.53,629.67,372.38Z"/><path class="cls-2" d="M849.68,372.38c0-22.16-5.17-41.69-13-53.2s-13-31-13-53.2,5.17-41.68,13-53.19,13-31,13-53.2-5.17-41.68-13-53.2-13-31-13-53.19,5.17-41.69,13-53.2H735.38c-7.85,11.51-13,31-13,53.2s5.17,41.68,13,53.19,13,31,13,53.2-5.17,41.68-13,53.2-13,31-13,53.19,5.17,41.68,13,53.2,13,31,13,53.2-5.17,41.68-13,53.19-13,31-13,53.2,5.17,41.68,13,53.19,13,31,13,53.2-5.17,41.68-13,53.2-13,31-13,53.19,5.17,41.69,13,53.2,13,31,13,53.2-5.17,41.68-13,53.19-13,31.05-13,53.2,5.17,41.68,13,53.2,13,31,13,53.19-5.17,41.68-13,53.2-13,31-13,53.2,5.17,41.68,13,53.19,13,31,13,53.2-5.17,41.68-13,53.19H836.66c7.85-11.51,13-31,13-53.19s-5.17-41.68-13-53.2-13-31-13-53.19,5.17-41.69,13-53.2,13-31,13-53.2-5.17-41.68-13-53.19-13-31-13-53.2,5.17-41.68,13-53.2,13-31,13-53.19-5.17-41.69-13-53.2-13-31-13-53.2,5.17-41.68,13-53.19,13-31,13-53.2-5.17-41.68-13-53.2-13-31-13-53.19,5.17-41.68,13-53.2S849.68,394.53,849.68,372.38Z"/><path class="cls-2" d="M1062.75,372.38c0-22.16-5.17-41.69-13-53.2s-13-31-13-53.2,5.17-41.68,13-53.19,13-31,13-53.2-5.17-41.68-13-53.2-13-31-13-53.19,5.17-41.69,13-53.2H948.45c-7.86,11.51-13,31-13,53.2s5.16,41.68,13,53.19,13,31,13,53.2-5.16,41.68-13,53.2-13,31-13,53.19,5.16,41.68,13,53.2,13,31,13,53.2-5.16,41.68-13,53.19-13,31-13,53.2,5.16,41.68,13,53.19,13,31,13,53.2-5.16,41.68-13,53.2-13,31-13,53.19,5.16,41.69,13,53.2,13,31,13,53.2-5.16,41.68-13,53.19-13,31.05-13,53.2,5.16,41.68,13,53.2,13,31,13,53.19-5.16,41.68-13,53.2-13,31-13,53.2,5.16,41.68,13,53.19,13,31,13,53.2-5.16,41.68-13,53.19h101.28c7.85-11.51,13-31,13-53.19s-5.17-41.68-13-53.2-13-31-13-53.19,5.17-41.69,13-53.2,13-31,13-53.2-5.17-41.68-13-53.19-13-31-13-53.2,5.17-41.68,13-53.2,13-31,13-53.19-5.17-41.69-13-53.2-13-31-13-53.2,5.17-41.68,13-53.19,13-31,13-53.2-5.17-41.68-13-53.2-13-31-13-53.19,5.17-41.68,13-53.2S1062.75,394.53,1062.75,372.38Z"/><path class="cls-2" d="M1282.75,372.38c0-22.16-5.17-41.69-13-53.2s-13-31-13-53.2,5.17-41.68,13-53.19,13-31,13-53.2-5.17-41.68-13-53.2-13-31-13-53.19,5.17-41.69,13-53.2H1168.45c-7.85,11.51-13,31-13,53.2s5.17,41.68,13,53.19,13,31,13,53.2-5.17,41.68-13,53.2-13,31-13,53.19,5.17,41.68,13,53.2,13,31,13,53.2-5.17,41.68-13,53.19-13,31-13,53.2,5.17,41.68,13,53.19,13,31,13,53.2-5.17,41.68-13,53.2-13,31-13,53.19,5.17,41.69,13,53.2,13,31,13,53.2-5.17,41.68-13,53.19-13,31.05-13,53.2,5.17,41.68,13,53.2,13,31,13,53.19-5.17,41.68-13,53.2-13,31-13,53.2,5.17,41.68,13,53.19,13,31,13,53.2-5.17,41.68-13,53.19h101.28c7.85-11.51,13-31,13-53.19s-5.17-41.68-13-53.2-13-31-13-53.19,5.17-41.69,13-53.2,13-31,13-53.2-5.17-41.68-13-53.19-13-31-13-53.2,5.17-41.68,13-53.2,13-31,13-53.19-5.17-41.69-13-53.2-13-31-13-53.2,5.17-41.68,13-53.19,13-31,13-53.2-5.17-41.68-13-53.2-13-31-13-53.19,5.17-41.68,13-53.2S1282.75,394.53,1282.75,372.38Z"/><path class="cls-2" d="M1504.57,372.38c0-22.16-5.16-41.69-13-53.2s-13-31-13-53.2,5.16-41.68,13-53.19,13-31,13-53.2-5.16-41.68-13-53.2-13-31-13-53.19,5.16-41.69,13-53.2H1390.27c-7.85,11.51-13,31-13,53.2s5.16,41.68,13,53.19,13,31,13,53.2-5.16,41.68-13,53.2-13,31-13,53.19,5.16,41.68,13,53.2,13,31,13,53.2-5.16,41.68-13,53.19-13,31-13,53.2,5.16,41.68,13,53.19,13,31,13,53.2-5.16,41.68-13,53.2-13,31-13,53.19,5.16,41.69,13,53.2,13,31,13,53.2-5.16,41.68-13,53.19-13,31.05-13,53.2,5.16,41.68,13,53.2,13,31,13,53.19-5.16,41.68-13,53.2-13,31-13,53.2,5.16,41.68,13,53.19,13,31,13,53.2-5.16,41.68-13,53.19h101.29c7.85-11.51,13-31,13-53.19s-5.16-41.68-13-53.2-13-31-13-53.19,5.16-41.69,13-53.2,13-31,13-53.2-5.16-41.68-13-53.19-13-31-13-53.2,5.16-41.68,13-53.2,13-31,13-53.19-5.16-41.69-13-53.2-13-31-13-53.2,5.16-41.68,13-53.19,13-31,13-53.2-5.16-41.68-13-53.2-13-31-13-53.19,5.16-41.68,13-53.2S1504.57,394.53,1504.57,372.38Z"/><path class="cls-2" d="M1724.58,372.38c0-22.16-5.17-41.69-13-53.2s-13-31-13-53.2,5.17-41.68,13-53.19,13-31,13-53.2-5.17-41.68-13-53.2-13-31-13-53.19,5.17-41.69,13-53.2H1610.28c-7.86,11.51-13,31-13,53.2s5.16,41.68,13,53.19,13,31,13,53.2-5.16,41.68-13,53.2-13,31-13,53.19,5.16,41.68,13,53.2,13,31,13,53.2-5.16,41.68-13,53.19-13,31-13,53.2,5.16,41.68,13,53.19,13,31,13,53.2-5.16,41.68-13,53.2-13,31-13,53.19,5.16,41.69,13,53.2,13,31,13,53.2-5.16,41.68-13,53.19-13,31.05-13,53.2,5.16,41.68,13,53.2,13,31,13,53.19-5.16,41.68-13,53.2-13,31-13,53.2,5.16,41.68,13,53.19,13,31,13,53.2-5.16,41.68-13,53.19h101.28c7.85-11.51,13-31,13-53.19s-5.17-41.68-13-53.2-13-31-13-53.19,5.17-41.69,13-53.2,13-31,13-53.2-5.17-41.68-13-53.19-13-31-13-53.2,5.17-41.68,13-53.2,13-31,13-53.19-5.17-41.69-13-53.2-13-31-13-53.2,5.17-41.68,13-53.19,13-31,13-53.2-5.17-41.68-13-53.2-13-31-13-53.19,5.17-41.68,13-53.2S1724.58,394.53,1724.58,372.38Z"/><path class="cls-2" d="M1944.6,372.38c0-22.16-5.16-41.69-13-53.2s-13-31-13-53.2,5.16-41.68,13-53.19,13-31,13-53.2-5.16-41.68-13-53.2-13-31-13-53.19,5.16-41.69,13-53.2H1830.3c-7.85,11.51-13,31-13,53.2s5.16,41.68,13,53.19,13,31,13,53.2-5.17,41.68-13,53.2-13,31-13,53.19,5.16,41.68,13,53.2,13,31,13,53.2-5.17,41.68-13,53.19-13,31-13,53.2,5.16,41.68,13,53.19,13,31,13,53.2-5.17,41.68-13,53.2-13,31-13,53.19,5.16,41.69,13,53.2,13,31,13,53.2-5.17,41.68-13,53.19-13,31.05-13,53.2,5.16,41.68,13,53.2,13,31,13,53.19-5.17,41.68-13,53.2-13,31-13,53.2,5.16,41.68,13,53.19,13,31,13,53.2-5.17,41.68-13,53.19h101.28c7.86-11.51,13-31,13-53.19s-5.16-41.68-13-53.2-13-31-13-53.19,5.16-41.69,13-53.2,13-31,13-53.2-5.16-41.68-13-53.19-13-31-13-53.2,5.16-41.68,13-53.2,13-31,13-53.19-5.16-41.69-13-53.2-13-31-13-53.2,5.16-41.68,13-53.19,13-31,13-53.2-5.16-41.68-13-53.2-13-31-13-53.19,5.16-41.68,13-53.2S1944.6,394.53,1944.6,372.38Z"/><path class="cls-2" d="M2164.61,372.38c0-22.16-5.17-41.69-13-53.2s-13-31-13-53.2,5.17-41.68,13-53.19,13-31,13-53.2-5.17-41.68-13-53.2-13-31-13-53.19,5.17-41.69,13-53.2H2050.31c-7.86,11.51-13,31-13,53.2s5.16,41.68,13,53.19,13,31,13,53.2-5.16,41.68-13,53.2-13,31-13,53.19,5.16,41.68,13,53.2,13,31,13,53.2-5.16,41.68-13,53.19-13,31-13,53.2,5.16,41.68,13,53.19,13,31,13,53.2-5.16,41.68-13,53.2-13,31-13,53.19,5.16,41.69,13,53.2,13,31,13,53.2-5.16,41.68-13,53.19-13,31.05-13,53.2,5.16,41.68,13,53.2,13,31,13,53.19-5.16,41.68-13,53.2-13,31-13,53.2,5.16,41.68,13,53.19,13,31,13,53.2-5.16,41.68-13,53.19h101.28c7.85-11.51,13-31,13-53.19s-5.17-41.68-13-53.2-13-31-13-53.19,5.17-41.69,13-53.2,13-31,13-53.2-5.17-41.68-13-53.19-13-31-13-53.2,5.17-41.68,13-53.2,13-31,13-53.19-5.17-41.69-13-53.2-13-31-13-53.2,5.17-41.68,13-53.19,13-31,13-53.2-5.17-41.68-13-53.2-13-31-13-53.19,5.17-41.68,13-53.2S2164.61,394.53,2164.61,372.38Z"/></svg>