<svg id="Layer_1" data-name="Layer 1" xmlns="http://www.w3.org/2000/svg" xmlns:xlink="http://www.w3.org/1999/xlink" viewBox="0 0 161.56 318.42"><defs><style>.cls-1{fill:#1d1d1b;stroke:#fff;stroke-miterlimit:10;}.cls-2{fill:url(#linear-gradient);}.cls-3{fill:#f39200;}.cls-4{fill:#e94e1b;}.cls-5{fill:#e71d73;}.cls-6{fill:#d60b52;}.cls-7{fill:#a3195b;}.cls-8{fill:#951b81;}.cls-9{fill:#662483;}.cls-10{fill:#29235c;}.cls-11{fill:#2d2e83;}.cls-12{fill:#1d71b8;}.cls-13{fill:#36a9e1;}.cls-14{fill:#00a19a;}.cls-15{fill:#2fac66;}.cls-16{fill:#063;}.cls-17{fill:#7b6a58;}.cls-18{fill:#dadada;opacity:0.31;}.cls-19{fill:#95c11f;}.cls-20{fill:#f6f6f6;}.cls-21{fill:#ededed;}</style><linearGradient id="linear-gradient" x1="176.35" y1="4.27" x2="176.35" y2="291.97" gradientTransform="translate(-95.56 11.34)" gradientUnits="userSpaceOnUse"><stop offset="0" stop-color="#dedc00"/><stop offset="1" stop-color="#f39200"/></linearGradient></defs><path class="cls-1" d="M40,4H121.6A26.43,26.43,0,0,1,148,30.44v257.9a26.43,26.43,0,0,1-26.43,26.43h-78a30.1,30.1,0,0,1-30.1-30.1V30.44A26.43,26.43,0,0,1,40,4Z" transform="translate(-15.94 9.14) rotate(-5.89)"/><path class="cls-2" d="M41.88,15.61H119.7A17.33,17.33,0,0,1,137,32.93V286a17.33,17.33,0,0,1-17.33,17.33H45.54a21,21,0,0,1-21-21V32.93A17.33,17.33,0,0,1,41.88,15.61Z" transform="translate(-15.95 9.14) rotate(-5.89)"/><circle class="cls-3" cx="74.2" cy="87.42" r="41.64"/><circle class="cls-4" cx="73.86" cy="87.45" r="34.63"/><rect class="cls-5" x="28.48" y="110.51" width="28.18" height="28.18" rx="7.28" transform="translate(-12.57 5.03) rotate(-5.89)"/><rect class="cls-6" x="63.24" y="106.92" width="28.18" height="28.18" rx="7.28" transform="translate(-12.02 8.58) rotate(-5.89)"/><rect class="cls-7" x="96.65" y="103.47" width="28.18" height="28.18" rx="7.28" transform="translate(-11.49 11.99) rotate(-5.89)"/><rect class="cls-8" x="32.62" y="147.26" width="28.18" height="28.18" rx="7.28" transform="translate(-16.32 5.65) rotate(-5.89)"/><rect class="cls-9" x="67.37" y="143.67" width="28.18" height="28.18" rx="7.28" transform="translate(-15.77 9.2) rotate(-5.89)"/><rect class="cls-10" x="100.78" y="140.22" width="28.18" height="28.18" rx="7.28" transform="translate(-15.24 12.61) rotate(-5.89)"/><rect class="cls-11" x="37.09" y="183.97" width="28.18" height="28.18" rx="7.28" transform="translate(-20.07 6.3) rotate(-5.89)"/><rect class="cls-12" x="71.85" y="180.38" width="28.18" height="28.18" rx="7.28" transform="translate(-19.52 9.85) rotate(-5.89)"/><rect class="cls-13" x="105.25" y="176.93" width="28.18" height="28.18" rx="7.28" transform="translate(-18.99 13.27) rotate(-5.89)"/><rect class="cls-14" x="40.21" y="220.82" width="28.18" height="28.18" rx="7.28" transform="translate(-23.84 6.82) rotate(-5.89)"/><rect class="cls-15" x="74.97" y="217.24" width="28.18" height="28.18" rx="7.28" transform="translate(-23.28 10.37) rotate(-5.89)"/><rect class="cls-16" x="108.38" y="213.79" width="28.18" height="28.18" rx="7.28" transform="translate(-22.75 13.78) rotate(-5.89)"/><rect class="cls-17" x="46.12" y="264.83" width="28.18" height="28.18" rx="7.28" transform="translate(-28.32 7.66) rotate(-5.89)"/><rect class="cls-18" x="40.08" y="6.45" width="34.11" height="310.76" transform="translate(-16.32 6.72) rotate(-5.89)"/><rect class="cls-19" x="80.87" y="261.24" width="28.18" height="28.18" rx="7.28" transform="translate(-27.77 11.21) rotate(-5.89)"/><rect class="cls-4" x="114.28" y="257.79" width="28.18" height="28.18" rx="7.28" transform="translate(-27.24 14.62) rotate(-5.89)"/><path class="cls-20" d="M27,72.63l-1.52,1.83-2.45-2.27,4.21-5.53,4.16-.43,2.09,20.29-5,.52Z"/><path class="cls-20" d="M37.76,71.52l-1.52,1.83-2.45-2.27L38,65.55l4.16-.43,2.09,20.29-5,.52Z"/><path class="cls-20" d="M48.06,70.29a2.35,2.35,0,1,1-2.2,2.58A2.25,2.25,0,0,1,48.06,70.29ZM49.13,80.7a2.35,2.35,0,1,1-2.19,2.59A2.24,2.24,0,0,1,49.13,80.7Z"/><path class="cls-20" d="M57.14,78.44a3.77,3.77,0,0,0,3.53,1.48,2.88,2.88,0,0,0,2.82-3.23c-.2-1.92-1.63-2.46-3.82-2.23l-5.92.61L52.61,64,66,62.66l.46,4.46L58,68l.22,2.16.81-.08c4.94-.51,8.68,1.29,9.17,6a7.6,7.6,0,0,1-7.08,8.22,8.68,8.68,0,0,1-7.69-3.27Z"/><path class="cls-20" d="M69.87,68.38a7,7,0,0,1,6.48-7.47,6.87,6.87,0,0,1,7.81,5.82l0,.51-5.07.52,0-.5a2,2,0,0,0-2.26-1.72,2.13,2.13,0,0,0-2,2.32l.25,2.44A6.36,6.36,0,0,1,85,75.08a7.2,7.2,0,0,1-14.3,1.48ZM78.11,78a2.36,2.36,0,0,0,2.07-2.43A2.31,2.31,0,1,0,78.11,78Z"/><circle class="cls-21" cx="65.46" cy="10.96" r="3.29"/></svg>