<svg id="Layer_1" data-name="Layer 1" xmlns="http://www.w3.org/2000/svg" xmlns:xlink="http://www.w3.org/1999/xlink" viewBox="0 0 161.56 318.42"><defs><style>.cls-1{fill:#1d1d1b;stroke:#fff;stroke-miterlimit:10;}.cls-2{fill:url(#linear-gradient);}.cls-3{fill:#95c11f;}.cls-4{fill:#fcea10;}.cls-5{fill:#e71d73;}.cls-6{fill:#d60b52;}.cls-7{fill:#a3195b;}.cls-8{fill:#951b81;}.cls-9{fill:#662483;}.cls-10{fill:#29235c;}.cls-11{fill:#2d2e83;}.cls-12{fill:#1d71b8;}.cls-13{fill:#36a9e1;}.cls-14{fill:#00a19a;}.cls-15{fill:#2fac66;}.cls-16{fill:#063;}.cls-17{fill:#7b6a58;}.cls-18{fill:#dadada;opacity:0.31;}.cls-19{fill:#e94e1b;}.cls-20{font-size:34px;fill:#f6f6f6;font-family:AcierBATText-Solid, Acier BAT;}.cls-21{fill:#ededed;}</style><linearGradient id="linear-gradient" x1="178.01" y1="28.61" x2="178.01" y2="316.32" gradientTransform="translate(-97.24 -13.01)" gradientUnits="userSpaceOnUse"><stop offset="0" stop-color="#fcea10"/><stop offset="1" stop-color="#95c11f"/></linearGradient></defs><path class="cls-1" d="M40,4H121.6A26.43,26.43,0,0,1,148,30.44v257.9a26.43,26.43,0,0,1-26.43,26.43h-78a30.1,30.1,0,0,1-30.1-30.1V30.44A26.43,26.43,0,0,1,40,4Z" transform="translate(14.29 -6.47) rotate(5.03)"/><path class="cls-2" d="M41.86,15.61h77.82A17.33,17.33,0,0,1,137,32.93V286a17.33,17.33,0,0,1-17.33,17.33H45.53a21,21,0,0,1-21-21V32.93A17.33,17.33,0,0,1,41.86,15.61Z" transform="translate(14.3 -6.47) rotate(5.03)"/><circle class="cls-3" cx="87.96" cy="87.48" r="41.64"/><circle class="cls-4" cx="77.93" cy="191.79" r="34.63"/><rect class="cls-5" x="35.77" y="103.9" width="28.18" height="28.18" rx="7.28" transform="translate(10.54 -3.92) rotate(5.03)"/><rect class="cls-6" x="70.58" y="106.96" width="28.18" height="28.18" rx="7.28" transform="translate(10.94 -6.96) rotate(5.03)"/><rect class="cls-7" x="104.03" y="109.91" width="28.18" height="28.18" rx="7.28" transform="translate(11.33 -9.88) rotate(5.03)"/><rect class="cls-8" x="32.86" y="140.77" width="28.18" height="28.18" rx="7.28" transform="translate(13.76 -3.52) rotate(5.03)"/><rect class="cls-9" x="67.67" y="143.83" width="28.18" height="28.18" rx="7.28" transform="translate(14.17 -6.56) rotate(5.03)"/><rect class="cls-10" x="101.13" y="146.78" width="28.18" height="28.18" rx="7.28" transform="translate(14.55 -9.49) rotate(5.03)"/><rect class="cls-11" x="30.3" y="177.66" width="28.18" height="28.18" rx="7.28" transform="translate(16.99 -3.15) rotate(5.03)"/><rect class="cls-12" x="65.1" y="180.72" width="28.18" height="28.18" rx="7.28" transform="translate(17.39 -6.2) rotate(5.03)"/><rect class="cls-13" x="98.56" y="183.67" width="28.18" height="28.18" rx="7.28" transform="translate(17.78 -9.12) rotate(5.03)"/><rect class="cls-14" x="26.38" y="214.44" width="28.18" height="28.18" rx="7.28" transform="translate(20.2 -2.67) rotate(5.03)"/><rect class="cls-15" x="61.18" y="217.5" width="28.18" height="28.18" rx="7.28" transform="translate(20.6 -5.71) rotate(5.03)"/><rect class="cls-16" x="94.64" y="220.45" width="28.18" height="28.18" rx="7.28" transform="translate(20.99 -8.63) rotate(5.03)"/><rect class="cls-17" x="23.84" y="258.76" width="28.18" height="28.18" rx="7.28" transform="translate(24.08 -2.27) rotate(5.03)"/><rect class="cls-18" x="40.05" y="1.93" width="34.11" height="310.76" transform="translate(14.02 -4.4) rotate(5.03)"/><rect class="cls-3" x="58.64" y="261.83" width="28.18" height="28.18" rx="7.28" transform="translate(24.48 -5.32) rotate(5.03)"/><rect class="cls-19" x="92.1" y="264.77" width="28.18" height="28.18" rx="7.28" transform="translate(24.87 -8.24) rotate(5.03)"/><text class="cls-20" transform="translate(39.23 78.09) rotate(5.03)">11:56</text><circle class="cls-21" cx="93.87" cy="10.74" r="3.29"/></svg>