<svg id="Layer_1" data-name="Layer 1" xmlns="http://www.w3.org/2000/svg" xmlns:xlink="http://www.w3.org/1999/xlink" viewBox="0 0 161.56 318.42"><defs><style>.cls-1{fill:#1d1d1b;stroke:#fff;stroke-miterlimit:10;}.cls-2{fill:url(#linear-gradient);}.cls-3{fill:#95c11f;}.cls-4{fill:#fcea10;}.cls-5{fill:#e71d73;}.cls-6{fill:#d60b52;}.cls-7{fill:#a3195b;}.cls-8{fill:#951b81;}.cls-9{fill:#662483;}.cls-10{fill:#29235c;}.cls-11{fill:#2d2e83;}.cls-12{fill:#1d71b8;}.cls-13{fill:#36a9e1;}.cls-14{fill:#00a19a;}.cls-15{fill:#2fac66;}.cls-16{fill:#063;}.cls-17{fill:#7b6a58;}.cls-18{fill:#dadada;opacity:0.31;}.cls-18,.cls-20{isolation:isolate;}.cls-19{fill:#e94e1b;}.cls-21{fill:#f6f6f6;}.cls-22{fill:#ededed;}</style><linearGradient id="linear-gradient" x1="200.14" y1="309.22" x2="200.14" y2="21.5" gradientTransform="matrix(1, 0.09, 0.09, -1, -133.1, 306.64)" gradientUnits="userSpaceOnUse"><stop offset="0" stop-color="#fcea10"/><stop offset="1" stop-color="#95c11f"/></linearGradient></defs><path class="cls-1" d="M53.79,1l81.28,7.16a26.42,26.42,0,0,1,24,28.65L136.44,293.74a26.43,26.43,0,0,1-28.65,24l-77.7-6.84A30.1,30.1,0,0,1,2.75,278.28h0L25,25A26.43,26.43,0,0,1,53.68,1Z"/><path class="cls-2" d="M54.63,12.75l77.52,6.82a17.34,17.34,0,0,1,15.74,18.77L125.7,290.44a17.33,17.33,0,0,1-18.79,15.74l-73.85-6.5A21,21,0,0,1,14,276.92h0L35.85,28.48A17.32,17.32,0,0,1,54.63,12.75Z"/><circle class="cls-3" cx="87.96" cy="87.48" r="41.64" transform="translate(-6.48 167.92) rotate(-85.27)"/><circle class="cls-4" cx="77.93" cy="191.79" r="34.63"/><rect class="cls-5" x="35.77" y="103.9" width="28.18" height="28.18" rx="7.28" transform="translate(-72.04 157.31) rotate(-84.97)"/><rect class="cls-6" x="70.58" y="106.96" width="28.18" height="28.18" rx="7.28" transform="translate(-43.33 194.78) rotate(-84.97)"/><rect class="cls-7" x="104.03" y="109.91" width="28.18" height="28.18" rx="7.28" transform="matrix(0.09, -1, 1, 0.09, -15.75, 230.8)"/><rect class="cls-8" x="32.86" y="140.77" width="28.18" height="28.18" rx="7.28" transform="translate(-111.43 188.05) rotate(-84.97)"/><rect class="cls-9" x="67.68" y="143.83" width="28.18" height="28.18" rx="7.28" transform="translate(-82.71 225.53) rotate(-84.97)"/><rect class="cls-10" x="101.13" y="146.77" width="28.18" height="28.18" rx="7.28" transform="translate(-55.12 261.54) rotate(-84.97)"/><rect class="cls-11" x="30.31" y="177.66" width="28.18" height="28.18" rx="7.28" transform="translate(-150.51 219.17) rotate(-84.97)"/><rect class="cls-12" x="65.1" y="180.71" width="28.18" height="28.18" rx="7.28" transform="translate(-121.8 256.61) rotate(-84.97)"/><rect class="cls-13" x="98.57" y="183.67" width="28.18" height="28.18" rx="7.28" transform="translate(-94.21 292.64) rotate(-84.97)"/><rect class="cls-14" x="26.39" y="214.44" width="28.18" height="28.18" rx="7.28" transform="translate(-190.72 248.81) rotate(-84.97)"/><rect class="cls-15" x="61.18" y="217.5" width="28.18" height="28.18" rx="7.28" transform="translate(-162.02 286.27) rotate(-84.97)"/><rect class="cls-16" x="94.65" y="220.45" width="28.18" height="28.18" rx="7.28" transform="translate(-134.43 322.29) rotate(-84.97)"/><rect class="cls-17" x="23.85" y="258.76" width="28.18" height="28.18" rx="7.28" transform="translate(-237.19 286.73) rotate(-84.97)"/><rect class="cls-18" x="-98.27" y="140.26" width="310.76" height="34.11" transform="translate(-104.6 200.41) rotate(-84.97)"/><rect class="cls-3" x="58.65" y="261.82" width="28.18" height="28.18" rx="7.28" transform="translate(-208.49 324.18) rotate(-84.97)"/><rect class="cls-19" x="92.11" y="264.77" width="28.18" height="28.18" rx="7.28" transform="translate(-180.89 360.2) rotate(-84.97)"/><g class="cls-20"><path class="cls-21" d="M44.46,64l-1.84,1.51-2-2.7,5.19-4.63,4.16.37L48.2,78.88l-5-.44Z"/><path class="cls-21" d="M55.2,65l-1.84,1.51-2-2.7,5.18-4.63,4.17.36L58.94,79.82l-5-.44Z"/><path class="cls-21" d="M64.62,76.13A2.35,2.35,0,1,1,62,78.25,2.24,2.24,0,0,1,64.62,76.13Zm.92-10.43a2.35,2.35,0,1,1-2.64,2.12A2.25,2.25,0,0,1,65.54,65.7Z"/><path class="cls-21" d="M72.91,75.42a3.78,3.78,0,0,0,3.19,2.13,2.89,2.89,0,0,0,3.38-2.64c.17-1.93-1.13-2.73-3.33-2.92l-5.93-.52,1-11,13.45,1.18-.39,4.47-8.5-.75-.2,2.17.82.07c4.94.44,8.27,2.91,7.86,7.66A7.59,7.59,0,0,1,75.72,82a8.67,8.67,0,0,1-6.93-4.67Z"/><path class="cls-21" d="M87.32,68a7,7,0,0,1,7.78-6.1c4,.35,6.89,3.54,6.56,7.2l0,.51-5.08-.45,0-.51a1.94,1.94,0,0,0-1.89-2.11,2.12,2.12,0,0,0-2.35,1.91l-.22,2.43a6.88,6.88,0,0,1,3-.48,6.53,6.53,0,0,1,5.76,7.06A7.21,7.21,0,0,1,86.6,76.15Zm6.27,11a2.37,2.37,0,0,0,2.5-2A2.33,2.33,0,0,0,94,74.58a2.31,2.31,0,0,0-2.49,1.93A2.34,2.34,0,0,0,93.59,78.92Z"/></g><circle class="cls-22" cx="93.87" cy="10.74" r="3.29"/></svg>