<svg id="Layer_1" data-name="Layer 1" xmlns="http://www.w3.org/2000/svg" xmlns:xlink="http://www.w3.org/1999/xlink" viewBox="0 0 161.56 318.42"><defs><style>.cls-1{fill:#1d1d1b;stroke:#fff;stroke-miterlimit:10;}.cls-2{fill:url(#linear-gradient);}.cls-3{fill:#f39200;}.cls-4{fill:#e94e1b;}.cls-5{fill:#e71d73;}.cls-6{fill:#d60b52;}.cls-7{fill:#a3195b;}.cls-8{fill:#951b81;}.cls-9{fill:#662483;}.cls-10{fill:#29235c;}.cls-11{fill:#2d2e83;}.cls-12{fill:#1d71b8;}.cls-13{fill:#36a9e1;}.cls-14{fill:#00a19a;}.cls-15{fill:#2fac66;}.cls-16{fill:#063;}.cls-17{fill:#7b6a58;}.cls-18{fill:#dadada;opacity:0.31;}.cls-19{fill:#95c11f;}.cls-20{font-size:34px;fill:#f6f6f6;font-family:AcierBATText-Solid, Acier BAT;}.cls-21{fill:#ededed;}</style><linearGradient id="linear-gradient" x1="178.01" y1="28.62" x2="178.01" y2="316.32" gradientTransform="translate(-97.22 -13.01)" gradientUnits="userSpaceOnUse"><stop offset="0" stop-color="#dedc00"/><stop offset="1" stop-color="#f39200"/></linearGradient></defs><path class="cls-1" d="M40,4H121.6A26.43,26.43,0,0,1,148,30.44v257.9a26.43,26.43,0,0,1-26.43,26.43h-78a30.1,30.1,0,0,1-30.1-30.1V30.44A26.43,26.43,0,0,1,40,4Z" transform="translate(-15.94 9.14) rotate(-5.89)"/><path class="cls-2" d="M41.88,15.61H119.7A17.33,17.33,0,0,1,137,32.93V286a17.33,17.33,0,0,1-17.33,17.33H45.54a21,21,0,0,1-21-21V32.93A17.33,17.33,0,0,1,41.88,15.61Z" transform="translate(-15.95 9.14) rotate(-5.89)"/><circle class="cls-3" cx="74.2" cy="87.42" r="41.64"/><circle class="cls-4" cx="73.86" cy="87.45" r="34.63"/><rect class="cls-5" x="28.48" y="110.51" width="28.18" height="28.18" rx="7.28" transform="translate(-12.57 5.03) rotate(-5.89)"/><rect class="cls-6" x="63.24" y="106.92" width="28.18" height="28.18" rx="7.28" transform="translate(-12.02 8.58) rotate(-5.89)"/><rect class="cls-7" x="96.65" y="103.47" width="28.18" height="28.18" rx="7.28" transform="translate(-11.49 11.99) rotate(-5.89)"/><rect class="cls-8" x="32.62" y="147.26" width="28.18" height="28.18" rx="7.28" transform="translate(-16.32 5.65) rotate(-5.89)"/><rect class="cls-9" x="67.37" y="143.67" width="28.18" height="28.18" rx="7.28" transform="translate(-15.77 9.2) rotate(-5.89)"/><rect class="cls-10" x="100.78" y="140.22" width="28.18" height="28.18" rx="7.28" transform="translate(-15.24 12.61) rotate(-5.89)"/><rect class="cls-11" x="37.09" y="183.97" width="28.18" height="28.18" rx="7.28" transform="translate(-20.07 6.3) rotate(-5.89)"/><rect class="cls-12" x="71.85" y="180.38" width="28.18" height="28.18" rx="7.28" transform="translate(-19.52 9.85) rotate(-5.89)"/><rect class="cls-13" x="105.25" y="176.93" width="28.18" height="28.18" rx="7.28" transform="translate(-18.99 13.27) rotate(-5.89)"/><rect class="cls-14" x="40.21" y="220.82" width="28.18" height="28.18" rx="7.28" transform="translate(-23.84 6.82) rotate(-5.89)"/><rect class="cls-15" x="74.97" y="217.24" width="28.18" height="28.18" rx="7.28" transform="translate(-23.28 10.37) rotate(-5.89)"/><rect class="cls-16" x="108.38" y="213.79" width="28.18" height="28.18" rx="7.28" transform="translate(-22.75 13.78) rotate(-5.89)"/><rect class="cls-17" x="46.12" y="264.83" width="28.18" height="28.18" rx="7.28" transform="translate(-28.32 7.66) rotate(-5.89)"/><rect class="cls-18" x="40.08" y="6.45" width="34.11" height="310.76" transform="translate(-16.32 6.72) rotate(-5.89)"/><rect class="cls-19" x="80.87" y="261.24" width="28.18" height="28.18" rx="7.28" transform="translate(-27.77 11.21) rotate(-5.89)"/><rect class="cls-4" x="114.28" y="257.79" width="28.18" height="28.18" rx="7.28" transform="translate(-27.24 14.62) rotate(-5.89)"/><text class="cls-20" transform="matrix(0.99, -0.1, 0.1, 0.99, 24.57, 87.44)">11:56</text><circle class="cls-21" cx="65.46" cy="10.96" r="3.29"/></svg>